<svg xmlns="http://www.w3.org/2000/svg" width="70" height="40">
    <path fill="#009A09" fill-rule="evenodd" d="M-.004 39.996V21.533H5.42v2.609H2.611v13.246h64.775V24.142h-2.373v-2.609H70v18.463H-.004zm24.392-23.381h1.347V8.864h-1.347V5.86h10.813v5.565l-2.285.009-.649-2.57h-1.816v2.4h1.748v2.995h-1.748v2.356h1.868l.11-.519.538-2.271h2.328v5.845H24.388v-3.055zm15.991 3.055h-2.755v-4.407h2.746c.148.414.413.778.793 1.093.381.315.78.472 1.194.472.25 0 .468-.063.652-.191a.62.62 0 0 0 .278-.541.72.72 0 0 0-.188-.497 1.172 1.172 0 0 0-.401-.302 3.718 3.718 0 0 0-.529-.179c-.335-.096-.63-.186-.886-.268-.256-.082-.529-.18-.819-.294a7.205 7.205 0 0 1-.763-.344 6.363 6.363 0 0 1-.669-.413 3.665 3.665 0 0 1-1.058-1.11 3.457 3.457 0 0 1-.358-.736 5.33 5.33 0 0 1-.217-.877 6.354 6.354 0 0 1-.081-1.046c0-1.35.331-2.425.993-3.225.662-.8 1.627-1.2 2.895-1.2 1.097 0 1.984.255 2.66.766.023-.068.114-.238.274-.511h2.43v4.391h-2.618a2.354 2.354 0 0 0-.682-1.174c-.353-.34-.742-.511-1.169-.511-.25 0-.446.065-.588.196-.142.131-.213.326-.213.587 0 .171.07.318.209.443a1.8 1.8 0 0 0 .567.323c.239.091.513.18.823.268.309.088.636.192.98.311s.688.254 1.032.404a4.74 4.74 0 0 1 1.821 1.446 3.9 3.9 0 0 1 .593 1.2c.15.479.231 1.014.242 1.604a4.712 4.712 0 0 1-.277 1.693 4.866 4.866 0 0 1-.818 1.464c-.35.425-.785.767-1.305 1.025a3.72 3.72 0 0 1-1.676.387c-.613 0-1.124-.078-1.53-.234-.407-.156-.832-.421-1.275-.796l-.307.783zm9.103 11.847a10.1 10.1 0 0 1-.888.456c-.33.152-.728.281-1.196.389a6.238 6.238 0 0 1-1.406.163c-1.121 0-2.076-.237-2.865-.711a4.383 4.383 0 0 1-1.762-1.965c-.387-.836-.58-1.822-.58-2.959 0-.573.054-1.127.163-1.664a6.487 6.487 0 0 1 .525-1.552c.242-.498.539-.932.892-1.302.352-.37.791-.665 1.315-.886a4.437 4.437 0 0 1 1.742-.332c.334 0 .621.011.861.034.239.023.511.087.816.193.306.106.56.255.763.45l.231-.481h2.108l.007 4.275h-2.02a2.819 2.819 0 0 0-.075-.7 2.36 2.36 0 0 0-.258-.646 1.318 1.318 0 0 0-.501-.49 1.491 1.491 0 0 0-.753-.186c-.212 0-.403.035-.572.105-.17.07-.31.159-.421.267a1.434 1.434 0 0 0-.288.419 2.862 2.862 0 0 0-.183.49 3.832 3.832 0 0 0-.095.566c-.022.22-.036.405-.04.554-.005.149-.007.329-.007.541v.298a5.168 5.168 0 0 0 0 .659c.013.237.029.473.047.707.018.234.067.46.146.676.079.217.176.409.292.576.115.166.276.3.484.398.208.1.45.149.725.149.367 0 .689-.107.966-.321.279-.214.451-.501.519-.862.018-.09.036-.302.055-.636h2.04v2.773l-.197.162c-.131.109-.328.24-.59.393zm2.361-7.779V21.35h8.596v4.424l-1.817.007-.515-2.043h-1.444v1.908h1.389v2.381h-1.389V29.9h1.484l.088-.413.427-1.806h1.851v4.647h-8.67V29.9h1.071v-6.162h-1.071zM51.62 8.864l-.546 2.595h-2.396v-5.59h12.424v5.59h-2.396l-.529-2.595h-.904v7.743h1.399v3.063h-7.598v-3.063h1.398V8.864h-.852zM39.462 29.9v2.428h-5.844V29.9h.997v-6.162h-.97V21.35h5.858v2.388h-.997V29.9h.956zm-18.176-6.162V21.35h6.881c.556 0 1.047.054 1.474.163.427.108.802.28 1.125.517.323.237.569.555.736.954.167.399.251.876.251 1.43 0 .654-.211 1.191-.634 1.61-.423.42-1.023.701-1.8.846.673.153 1.155.368 1.444.643.289.274.434.62.434 1.034v.629c0 .131.01.235.03.311.021.077.067.15.14.22.071.07.183.12.335.149.151.03.354.044.607.044v2.428h-1.776a13.1 13.1 0 0 1-.824-.02 3.113 3.113 0 0 1-.41-.044 4.756 4.756 0 0 1-.37-.091 1.304 1.304 0 0 1-.345-.146 2.027 2.027 0 0 1-.278-.216.968.968 0 0 1-.227-.301 1.966 1.966 0 0 1-.136-.402 2.27 2.27 0 0 1-.054-.511v-1.319a4.11 4.11 0 0 0-.045-.666 1.653 1.653 0 0 0-.169-.508.772.772 0 0 0-.383-.355c-.171-.077-.393-.115-.664-.115h-.665V29.9h.821v2.428c-1.193 0-3.023.002-5.491.007V29.9h1.044v-6.162h-1.051zm4.637 2.367h.413c.231 0 .44-.017.628-.054.187-.036.364-.096.532-.182a.952.952 0 0 0 .393-.372 1.13 1.13 0 0 0 .142-.582c0-.356-.114-.641-.342-.856-.229-.214-.544-.321-.946-.321h-.82v2.367zM9.66 16.615h1.466l.009-7.751H9.719V5.869l6.942-.009c.693 0 1.303.03 1.829.09s1.023.169 1.492.327c.469.159.852.372 1.151.638.299.268.533.611.704 1.03.171.42.256.913.256 1.481 0 .703-.194 1.323-.58 1.859a3.22 3.22 0 0 1-1.51 1.153v.017c.853.244 1.512.672 1.979 1.285.466.613.699 1.398.699 2.356 0 .636-.125 1.187-.375 1.655-.25.468-.604.84-1.062 1.115a5.2 5.2 0 0 1-1.569.608 9.147 9.147 0 0 1-1.982.196H9.66v-3.055zm5.969 0h.188c.113.006.225.008.336.005.111-.003.219-.007.325-.013a3.598 3.598 0 0 0 .579-.081 1.206 1.206 0 0 0 .469-.213.78.78 0 0 0 .175-.182 1.346 1.346 0 0 0 .218-.553c.019-.12.029-.25.029-.392 0-.255-.038-.476-.115-.664a1.195 1.195 0 0 0-.281-.433 1.219 1.219 0 0 0-.41-.243 1.895 1.895 0 0 0-.439-.111 4.207 4.207 0 0 0-.443-.021l-.631.009v2.892zm0-5.122h.349c.302 0 .551-.015.747-.046.196-.031.39-.094.584-.188a.89.89 0 0 0 .43-.442c.094-.201.141-.458.141-.77 0-.38-.117-.672-.35-.876a1.21 1.21 0 0 0-.827-.307h-1.074v2.629zm.029 18.407v2.428H9.822V29.9h1.057v-6.162H9.856V21.35H14.743c.294.005.588.005.882 0 .293-.004.581.006.864.031.282.024.557.054.823.088.267.034.521.091.763.172.242.082.467.178.675.291.207.113.397.259.569.44.172.18.318.384.441.612.122.227.217.5.288.815.07.316.107.665.112 1.048.009.668-.092 1.244-.302 1.729-.21.485-.518.869-.922 1.153a4.146 4.146 0 0 1-1.41.622 7.784 7.784 0 0 1-1.84.196c-.322 0-.661-.022-1.017-.067v1.42h.989zm-.711-3.625c1.025 0 1.538-.453 1.538-1.36 0-.406-.119-.703-.359-.893-.239-.189-.535-.284-.888-.284h-.569v2.537h.278zm50.066-10.421h2.373V2.608H2.611v13.246H5.42v2.608H-.004V0H70v18.462h-4.987v-2.608z"/>
</svg>
